<?xml version="1.0" encoding="UTF-8"?>
<svg version="1.1" xmlns="http://www.w3.org/2000/svg" width="500" height="150">
<path d="M0 0 C1.47906892 -0.02689216 2.95827483 -0.04634621 4.4375 -0.0625 C5.26121094 -0.07410156 6.08492187 -0.08570312 6.93359375 -0.09765625 C9 0 9 0 10 1 C10.1339036 2.97503095 10.20355231 4.95448596 10.24609375 6.93359375 C10.27896484 8.13951172 10.31183594 9.34542969 10.34570312 10.58789062 C10.40680579 13.15030258 10.46410948 15.712808 10.51757812 18.27539062 C10.56881836 20.08620117 10.56881836 20.08620117 10.62109375 21.93359375 C10.6461499 23.04790771 10.67120605 24.16222168 10.69702148 25.31030273 C10.73377864 28.14945335 10.73377864 28.14945335 13 30 C15.5 30.33333333 15.5 30.33333333 18 30 C20.75439516 27.24560484 20.30989276 25.53396797 20.4140625 21.6796875 C20.45273437 20.42285156 20.49140625 19.16601562 20.53125 17.87109375 C20.5621875 16.55238281 20.593125 15.23367187 20.625 13.875 C20.66318029 12.53513082 20.70223206 11.19528617 20.7421875 9.85546875 C20.8367203 6.57045381 20.92227156 3.28544862 21 0 C24.3 0 27.6 0 31 0 C31.01458252 0.83772949 31.02916504 1.67545898 31.04418945 2.53857422 C31.10520707 5.64378902 31.17935065 8.74833117 31.26245117 11.85302734 C31.31209959 13.85882336 31.34654164 15.86497687 31.38085938 17.87109375 C31.4340332 19.75634766 31.4340332 19.75634766 31.48828125 21.6796875 C31.51446533 22.84226074 31.54064941 24.00483398 31.56762695 25.20263672 C31.71031006 26.1257666 31.85299316 27.04889648 32 28 C35.4352048 30.29013653 36.985331 30.17842973 41 30 C42.00158069 26.6210018 42.19578116 23.43723472 42.31640625 19.921875 C42.37924805 18.18164062 42.37924805 18.18164062 42.44335938 16.40625 C42.48267578 15.1996875 42.52199219 13.993125 42.5625 12.75 C42.62727539 10.91695312 42.62727539 10.91695312 42.69335938 9.046875 C42.79937355 6.0313608 42.90143936 3.01576552 43 0 C45.97 0 48.94 0 52 0 C52.07455949 4.02009457 52.12879358 8.03991733 52.16479492 12.06054688 C52.17981428 13.42617816 52.20023608 14.79176176 52.22631836 16.15722656 C52.26300137 18.12803905 52.27818551 20.09921408 52.29296875 22.0703125 C52.3086792 23.25383301 52.32438965 24.43735352 52.34057617 25.65673828 C51.82639046 30.70423587 50.18966638 33.92639864 46.4375 37.3125 C41.72457154 40.57529663 37.63794157 40.54728863 32 40 C30.906875 39.443125 29.81375 38.88625 28.6875 38.3125 C27.800625 37.879375 26.91375 37.44625 26 37 C25.278125 37.433125 24.55625 37.86625 23.8125 38.3125 C19.39039294 40.96576423 15.02290944 40.76279141 10 40 C4.57152073 37.70710442 2.29849976 34.35517838 0 29 C-0.34057617 25.65673828 -0.34057617 25.65673828 -0.29296875 22.0703125 C-0.28330078 20.78125 -0.27363281 19.4921875 -0.26367188 18.1640625 C-0.23861188 16.81770214 -0.21321712 15.47134797 -0.1875 14.125 C-0.17243504 12.75522295 -0.15874982 11.38542998 -0.14648438 10.015625 C-0.11121379 6.67667642 -0.06191896 3.33854325 0 0 Z " fill="#313232" transform="translate(239,71)"/>
<path d="M0 0 C2.97 0 5.94 0 9 0 C9.10872471 3.33422438 9.18766068 6.66484659 9.25 10 C9.30027344 11.40185547 9.30027344 11.40185547 9.3515625 12.83203125 C9.4539367 20.15178625 8.1115781 25.38403367 3.2890625 30.98828125 C2.46535156 31.64376953 2.46535156 31.64376953 1.625 32.3125 C1.02300781 32.79589844 0.42101562 33.27929688 -0.19921875 33.77734375 C-2 35 -2 35 -5.1875 36.375 C-8.72729958 38.42021754 -9.27067879 40.31007712 -10.87890625 43.93359375 C-13.31906084 48.43130029 -17.29791568 51.16786989 -21.8125 53.375 C-28.7442338 54.73416349 -34.91360047 54.91293455 -41.1796875 51.3359375 C-45.68471935 48.02966949 -49.716612 43.51856841 -51 38 C-51.1443621 34.65904848 -51.11678495 31.34134725 -51 28 C-48.03 28 -45.06 28 -42 28 C-41.91363281 28.66386719 -41.82726563 29.32773438 -41.73828125 30.01171875 C-41.04669388 34.35793297 -40.41387136 37.40353833 -37.875 41.0625 C-34.22266753 43.52385449 -31.38520163 44.28374834 -27 44 C-23.30894642 42.81607715 -21.58245733 41.84148282 -19.375 38.65234375 C-17.37969554 33.35231627 -17.42835622 28.24568168 -17.3125 22.625 C-17.27833984 21.50738281 -17.24417969 20.38976562 -17.20898438 19.23828125 C-17.12683927 16.49228778 -17.05757872 13.74660018 -17 11 C-14.03 11 -11.06 11 -8 11 C-7.505 18.425 -7.505 18.425 -7 26 C-2.20888574 21.20888574 -0.98989135 19.93924012 -0.68359375 13.76953125 C-0.62075195 12.56586914 -0.62075195 12.56586914 -0.55664062 11.33789062 C-0.51732422 10.50451172 -0.47800781 9.67113281 -0.4375 8.8125 C-0.37272461 7.5450293 -0.37272461 7.5450293 -0.30664062 6.25195312 C-0.20068482 4.16815567 -0.0998498 2.08409897 0 0 Z " fill="#00F481" transform="translate(96,71)"/>
<path d="M0 0 C4.46409437 3.17637484 7.17180462 5.80407628 9 11 C9.495 16.445 9.495 16.445 10 22 C1.75 22 -6.5 22 -15 22 C-15 19.03 -15 16.06 -15 13 C-8.565 12.505 -8.565 12.505 -2 12 C-2.33 11.01 -2.66 10.02 -3 9 C-6.49232362 7.39622907 -10.30028712 6.63964811 -14.08203125 7.44140625 C-17.47288852 8.80488781 -18.95427235 9.93140853 -21 13 C-21.82074015 17.61342359 -21.66301762 20.99477973 -19.0625 24.9375 C-15.04331288 27.64429949 -11.76816041 28.21716769 -7 29 C-7 31.97 -7 34.94 -7 38 C-14.77354158 38.41479372 -19.64004973 37.96925837 -25.6875 32.625 C-29.90455738 27.83807001 -31.76579655 24.04464483 -32.25 17.75 C-31.80354971 11.05324563 -30.18447766 6.73024518 -25.1875 2.125 C-17.26935074 -4.20663484 -8.8693586 -4.76317406 0 0 Z " fill="#313232" transform="translate(369,73)"/>
<path d="M0 0 C3.3 0 6.6 0 10 0 C10.01417969 1.59070313 10.02835938 3.18140625 10.04296875 4.8203125 C10.08987927 6.92190365 10.13812659 9.02346527 10.1875 11.125 C10.19330078 12.17171875 10.19910156 13.2184375 10.20507812 14.296875 C10.33155484 20.92155291 10.33155484 20.92155291 13.26953125 26.67578125 C17.13449967 29.9657043 20.03008749 30.397593 25 30 C28.79634043 28.43194634 30.83354982 26.44605824 33 23 C33.49948459 20.39837029 33.49948459 20.39837029 33.51171875 17.578125 C33.54716797 16.55332031 33.58261719 15.52851562 33.61914062 14.47265625 C33.64169922 13.40917969 33.66425781 12.34570312 33.6875 11.25 C33.72166016 10.17105469 33.75582031 9.09210938 33.79101562 7.98046875 C33.87339858 5.32067608 33.93837837 2.66035463 34 0 C37.3 0 40.6 0 44 0 C44.10904666 3.45920241 44.18781572 6.91488907 44.25 10.375 C44.28351563 11.34050781 44.31703125 12.30601563 44.3515625 13.30078125 C44.45245681 20.81740704 43.45616917 28.15734901 38.24902344 33.94677734 C32.38850791 39.34408479 26.84691432 40.46658554 19.0078125 40.3125 C13.03247273 39.69168548 9.42406099 37.39241519 5.1875 33.25 C0.1155292 25.71450053 -0.41404173 19.35255386 -0.1875 10.5 C-0.17396484 9.48679687 -0.16042969 8.47359375 -0.14648438 7.4296875 C-0.11143538 4.95289167 -0.05763972 2.47637309 0 0 Z " fill="#313232" transform="translate(145,71)"/>
<path d="M0 0 C5.28145973 4.78216207 7.66069538 10.12975911 8.28198242 17.25488281 C8.34023512 20.05002928 8.31022037 22.82648352 8.234375 25.62109375 C8.21407227 27.06258789 8.21407227 27.06258789 8.19335938 28.53320312 C8.15840348 30.87524814 8.10461294 33.21699961 8.046875 35.55859375 C4.746875 35.55859375 1.446875 35.55859375 -1.953125 35.55859375 C-1.97890625 34.04007813 -2.0046875 32.5215625 -2.03125 30.95703125 C-2.0875446 28.94919055 -2.14489163 26.94137916 -2.203125 24.93359375 C-2.21730469 23.93457031 -2.23148438 22.93554688 -2.24609375 21.90625 C-2.44508991 15.896566 -2.81672418 12.06365774 -6.953125 7.55859375 C-9.52308221 6.02721719 -11.97326521 5.63086647 -14.953125 5.55859375 C-19.67044103 6.95058864 -22.42338702 8.34159144 -24.953125 12.55859375 C-25.45260959 15.16022346 -25.45260959 15.16022346 -25.46484375 17.98046875 C-25.50029297 19.00527344 -25.53574219 20.03007813 -25.57226562 21.0859375 C-25.60610352 22.68115234 -25.60610352 22.68115234 -25.640625 24.30859375 C-25.67478516 25.38753906 -25.70894531 26.46648437 -25.74414062 27.578125 C-25.82652358 30.23791767 -25.89150337 32.89823912 -25.953125 35.55859375 C-29.253125 35.55859375 -32.553125 35.55859375 -35.953125 35.55859375 C-36.03460161 32.05811721 -36.09385628 28.55956636 -36.140625 25.05859375 C-36.16576172 24.07632813 -36.19089844 23.0940625 -36.21679688 22.08203125 C-36.29142298 14.61942087 -35.27553674 9.20809792 -31.203125 2.80859375 C-22.62347043 -5.77106082 -9.88447207 -7.29474039 0 0 Z " fill="#313232" transform="translate(227.953125,74.44140625)"/>
<path d="M0 0 C5.32261066 3.85889273 8.70956156 7.9215744 11.5 13.8125 C11.75 17.25 11.75 17.25 11.5 19.8125 C13.81 19.8125 16.12 19.8125 18.5 19.8125 C18.5 22.7825 18.5 25.7525 18.5 28.8125 C13.22 28.8125 7.94 28.8125 2.5 28.8125 C2.25585938 24.36914062 2.25585938 24.36914062 2.01171875 19.92578125 C1.28605432 15.51086104 -0.2757842 12.79867384 -3.75 10 C-7.26669597 8.48142674 -9.69960827 8.40531517 -13.5 8.8125 C-17.73247402 10.64015923 -19.43370464 12.75568673 -21.5 16.8125 C-21.99520766 19.50692447 -21.99520766 19.50692447 -22.01171875 22.33203125 C-22.04716797 23.35361328 -22.08261719 24.37519531 -22.11914062 25.42773438 C-22.15297852 27.01038086 -22.15297852 27.01038086 -22.1875 28.625 C-22.22166016 29.69943359 -22.25582031 30.77386719 -22.29101562 31.88085938 C-22.37326643 34.52463533 -22.44249209 37.16808921 -22.5 39.8125 C-25.47 39.8125 -28.44 39.8125 -31.5 39.8125 C-31.61710979 35.81275019 -31.68755489 31.81344719 -31.75 27.8125 C-31.78351563 26.68714844 -31.81703125 25.56179687 -31.8515625 24.40234375 C-31.94470127 16.43897866 -31.05455503 10.85034979 -25.71875 4.7890625 C-25.1515625 4.34304687 -24.584375 3.89703125 -24 3.4375 C-23.4328125 2.97601562 -22.865625 2.51453125 -22.28125 2.0390625 C-15.66431634 -2.5173348 -7.53315626 -2.5558923 0 0 Z " fill="#00F481" transform="translate(110.5,28.1875)"/>
<path d="M0 0 C3.3 0 6.6 0 10 0 C10 5.61 10 11.22 10 17 C17.26230126 16.94830552 17.26230126 16.94830552 23.625 14.125 C25.15292014 11.95770294 25.15292014 11.95770294 26 9 C28.97 9 31.94 9 35 9 C34.28571429 17.57142857 34.28571429 17.57142857 31 21 C31.28875 21.5775 31.5775 22.155 31.875 22.75 C32.24625 23.4925 32.6175 24.235 33 25 C33.350625 25.598125 33.70125 26.19625 34.0625 26.8125 C35.19141128 29.44662632 35.20008831 31.39664437 35.125 34.25 C35.10695313 35.14203125 35.08890625 36.0340625 35.0703125 36.953125 C35.04710937 37.62859375 35.02390625 38.3040625 35 39 C32.03 39 29.06 39 26 39 C25.54427083 36.72135417 25.08854167 34.44270833 24.6328125 32.1640625 C24.13341068 29.81326077 24.13341068 29.81326077 22 28 C19.11282395 27.3162387 19.11282395 27.3162387 15.875 26.875 C13.93625 26.58625 11.9975 26.2975 10 26 C10 30.29 10 34.58 10 39 C6.7 39 3.4 39 0 39 C0 26.13 0 13.26 0 0 Z " fill="#00F481" transform="translate(435,71)"/>
<path d="M0 0 C2.97 0 5.94 0 9 0 C9.33 3.3 9.66 6.6 10 10 C10.66 9.67 11.32 9.34 12 9 C19.13897709 8.27781492 24.26235486 8.55039765 30 13 C33.28161961 17.23156212 35.1380198 20.64336668 35.09765625 26.01171875 C35.09443359 26.76904297 35.09121094 27.52636719 35.08789062 28.30664062 C35.07532227 29.48516602 35.07532227 29.48516602 35.0625 30.6875 C35.05798828 31.48478516 35.05347656 32.28207031 35.04882812 33.10351562 C35.0370585 35.06904257 35.01912348 37.03453085 35 39 C32.03 39 29.06 39 26 39 C25.95101563 38.11957031 25.90203125 37.23914063 25.8515625 36.33203125 C25.77679688 35.17058594 25.70203125 34.00914063 25.625 32.8125 C25.55539062 31.66394531 25.48578125 30.51539062 25.4140625 29.33203125 C25.01850658 26.14892559 24.47990143 23.83396091 23 21 C20.11487022 18.65477065 20.11487022 18.65477065 16.5 19.125 C13.06742685 19.68169006 13.06742685 19.68169006 11.32421875 21.5703125 C9.51821363 24.88398561 9.43456987 28.06000216 9.3125 31.75 C9.27833984 32.44738281 9.24417969 33.14476562 9.20898438 33.86328125 C9.12691705 35.57497108 9.06177081 37.2874576 9 39 C6.03 39 3.06 39 0 39 C0 26.13 0 13.26 0 0 Z " fill="#00F481" transform="translate(397,71)"/>
<path d="M0 0 C2.97 0 5.94 0 9 0 C9.03867187 1.73636719 9.03867187 1.73636719 9.078125 3.5078125 C9.13443349 5.04691128 9.1917802 6.58597233 9.25 8.125 C9.26417969 8.88554688 9.27835938 9.64609375 9.29296875 10.4296875 C9.51919358 15.67810367 10.46783605 18.87914206 14 23 C17.60379236 25.51908654 20.59987532 25.18877323 24.80859375 24.61328125 C28.22291133 23.65775922 29.89383225 21.76434517 32 19 C33.23759823 15.28720531 33.35608897 11.68693654 33.5625 7.8125 C33.62727539 6.68811523 33.62727539 6.68811523 33.69335938 5.54101562 C33.79922685 3.69421625 33.9000976 1.84713166 34 0 C36.97 0 39.94 0 43 0 C43.10890711 3.00099588 43.18773555 5.99796378 43.25 9 C43.30027344 10.25876953 43.30027344 10.25876953 43.3515625 11.54296875 C43.46033456 18.55876675 41.87197222 23.67185322 37.25390625 29.0234375 C36.69574219 29.46945313 36.13757813 29.91546875 35.5625 30.375 C35.00691406 30.83648437 34.45132813 31.29796875 33.87890625 31.7734375 C28.19219434 35.48576087 22.60738327 35.73312258 16 35 C9.09192465 33.02457434 4.50755466 28.27204496 0.93554688 22.18652344 C-0.13413354 19.68650836 -0.23005068 17.94395272 -0.1953125 15.234375 C-0.18886719 14.34492187 -0.18242187 13.45546875 -0.17578125 12.5390625 C-0.15902344 11.61867188 -0.14226563 10.69828125 -0.125 9.75 C-0.11597656 8.81414062 -0.10695313 7.87828125 -0.09765625 6.9140625 C-0.07413791 4.60926511 -0.03826826 2.30459967 0 0 Z " fill="#00F481" transform="translate(28,58)"/>
<path d="M0 0 C0 2.97 0 5.94 0 9 C-0.74765625 9.17015625 -1.4953125 9.3403125 -2.265625 9.515625 C-3.25046875 9.75796875 -4.2353125 10.0003125 -5.25 10.25 C-6.22453125 10.48203125 -7.1990625 10.7140625 -8.203125 10.953125 C-11.36706775 12.13739407 -12.87146182 13.40279286 -15 16 C-15.95168683 18.85506049 -16.1900946 20.90937282 -16.31640625 23.88671875 C-16.35830078 24.82451172 -16.40019531 25.76230469 -16.44335938 26.72851562 C-16.48267578 27.70498047 -16.52199219 28.68144531 -16.5625 29.6875 C-16.60568359 30.67556641 -16.64886719 31.66363281 -16.69335938 32.68164062 C-16.79941542 35.12092972 -16.90020974 37.56044654 -17 40 C-19.97 40 -22.94 40 -26 40 C-26.11719175 36.16692831 -26.18758077 32.33432392 -26.25 28.5 C-26.28351563 27.42234375 -26.31703125 26.3446875 -26.3515625 25.234375 C-26.44703249 17.4058357 -25.39197958 12.01151923 -20.2890625 5.9765625 C-13.66909876 0.59978444 -8.40910025 -0.25482122 0 0 Z " fill="#313232" transform="translate(338,70)"/>
<path d="M0 0 C2.97 0 5.94 0 9 0 C9 7.26 9 14.52 9 22 C6.03 22 3.06 22 0 22 C0 14.74 0 7.48 0 0 Z " fill="#323232" transform="translate(297,88)"/>
<path d="M0 0 C2.97 0 5.94 0 9 0 C9 4.62 9 9.24 9 14 C6.03 14 3.06 14 0 14 C0 9.38 0 4.76 0 0 Z " fill="#323232" transform="translate(297,71)"/>
<path d="M0 0 C2.4375 0.75 2.4375 0.75 4.4375 2.75 C4.25 5.75 4.25 5.75 3.4375 8.75 C0.4375 10.75 0.4375 10.75 -2.125 10.5625 C-4.5625 9.75 -4.5625 9.75 -6.5625 6.75 C-6.375 4.1875 -6.375 4.1875 -5.5625 1.75 C-2.5625 -0.25 -2.5625 -0.25 0 0 Z " fill="#313232" transform="translate(101.5625,47.25)"/>
<path d="M0 0 C2.97 0 5.94 0 9 0 C9 2.97 9 5.94 9 9 C6.03 9 3.06 9 0 9 C0 6.03 0 3.06 0 0 Z " fill="#00F481" transform="translate(384,101)"/>
</svg>
